# xmcd
#
# Track frame offsets:
#	150
#	18793
#	32609
#	46472
#	61111
#	74601
#	91559
#	106291
#	119753
#	134125
#	149338
#	170650
#
# Disc length: 2588 seconds
#
# Revision: 0
# Processed by: cddbd v1.5.2PL0 Copyright (c) Steve Scherf et al.
# Submitted via: audiograbber 1.83.01
#
DISCID=aa0a1a0c
DTITLE=Adamo - Adamo - Starparade
DYEAR=1978
DGENRE=Chanson
TTITLE0=So bin ich
TTITLE1=Eine Locke von deinem Haar
TTITLE2=Die schönen Damen
TTITLE3=Rosalie c'est la vie
TTITLE4=Es geht eine Träne auf Reisen
TTITLE5=Leih mir eine Melodie
TTITLE6=Diese Welt ist ein Jahrmarkt
TTITLE7=Gestatten Sie, Monsieur?
TTITLE8=Ein kleines Glück
TTITLE9=Ich muß wieder lernen, die Rosen zu sehen
TTITLE10=Inch' Allah
TTITLE11=Die alte Dame, der Sänger und die Spatzen
EXTD=
EXTT0=
EXTT1=
EXTT2=
EXTT3=
EXTT4=
EXTT5=
EXTT6=
EXTT7=
EXTT8=
EXTT9=
EXTT10=
EXTT11=
PLAYORDER=
